<?xml version="1.0" encoding="UTF-8" standalone="no"?>
<svg
   xmlns:dc="http://purl.org/dc/elements/1.1/"
   xmlns:cc="http://creativecommons.org/ns#"
   xmlns:rdf="http://www.w3.org/1999/02/22-rdf-syntax-ns#"
   xmlns:svg="http://www.w3.org/2000/svg"
   xmlns="http://www.w3.org/2000/svg"
   xmlns:sodipodi="http://sodipodi.sourceforge.net/DTD/sodipodi-0.dtd"
   xmlns:inkscape="http://www.inkscape.org/namespaces/inkscape"
   version="1.0"
   width="750.000000pt"
   height="300.000000pt"
   viewBox="0 0 750.000000 300.000000"
   preserveAspectRatio="xMidYMid meet"
   id="svg3712"
   sodipodi:docname="logos.svg"
   inkscape:version="0.92.1 r15371">
  <defs
     id="defs3716" />
  <sodipodi:namedview
     pagecolor="#ffffff"
     bordercolor="#666666"
     borderopacity="1"
     objecttolerance="10"
     gridtolerance="10"
     guidetolerance="10"
     inkscape:pageopacity="0"
     inkscape:pageshadow="2"
     inkscape:window-width="1366"
     inkscape:window-height="745"
     id="namedview3714"
     showgrid="false"
     inkscape:zoom="1.211"
     inkscape:cx="537.50763"
     inkscape:cy="200"
     inkscape:window-x="-8"
     inkscape:window-y="-8"
     inkscape:window-maximized="1"
     inkscape:current-layer="svg3712" />
  <metadata
     id="metadata3680">
Created by potrace 1.13, written by Peter Selinger 2001-2015
<rdf:RDF>
  <cc:Work
     rdf:about="">
    <dc:format>image/svg+xml</dc:format>
    <dc:type
       rdf:resource="http://purl.org/dc/dcmitype/StillImage" />
    <dc:title></dc:title>
  </cc:Work>
</rdf:RDF>
</metadata>
  <g
     transform="translate(0.000000,300.000000) scale(0.100000,-0.100000)"
     fill="#000000"
     stroke="none"
     id="g3710"
     style="fill:#ffffff;fill-opacity:0.93467337">
    <path
       d="M6190 2530 c-8 -5 -36 -17 -62 -27 -70 -26 -76 -51 -42 -161 5 -19 -3 -32 -43 -72 -53 -52 -59 -53 -140 -31 -30 8 -49 9 -62 2 -26 -14 -63 -96 -69 -152 l-4 -45 58 -38 59 -38 -3 -74 c-2 -40 -7 -73 -10 -72 -4 1 -28 -11 -54 -28 -44 -27 -47 -32 -48 -71 0 -46 24 -117 49 -146 12 -14 28 -18 71 -16 30 1 63 6 73 11 14 7 27 -1 65 -40 50 -52 52 -58 28 -157 -9 -42 8 -62 86 -95 82 -34 110 -30 140 19 12 20 25 38 28 41 4 3 9 11 11 18 3 10 26 14 78 15 l74 1 26 -55 c36 -75 57 -81 158 -43 l78 30 1 54 c0 30 -3 68 -7 84 -7 25 -3 34 39 76 l47 47 67 -15 c61 -14 69 -13 93 2 14 9 25 24 25 34 0 9 7 25 15 36 21 27 30 103 15 121 -7 8 -34 27 -60 41 -43 23 -47 29 -45 57 2 18 3 51 4 75 1 23 6 42 12 42 6 0 17 6 24 13 31 27 44 37 50 37 15 0 35 31 35 53 0 35 -39 129 -63 150 -17 15 -30 17 -81 11 -34 -4 -67 -11 -73 -17 -9 -6 -13 -6 -13 1 0 5 -21 31 -47 56 l-47 46 17 48 c23 62 21 85 -5 109 -33 29 -143 73 -167 66 -11 -3 -33 -26 -48 -52 -14 -25 -31 -50 -37 -56 -6 -5 -41 -9 -78 -7 -72 4 -75 6 -119 87 -13 23 -24 30 -50 32 -19 1 -41 -2 -49 -7z m339 -286 c68 -28 140 -85 175 -137 56 -84 66 -117 66 -212 0 -72 -4 -95 -27 -143 -14 -31 -34 -65 -43 -74 -10 -9 -20 -21 -21 -25 -8 -18 -81 -73 -90 -67 -5 3 -8 0 -7 -7 5 -20 -95 -48 -179 -50 -64 -2 -90 3 -143 25 -79 33 -149 98 -180 169 -12 29 -27 61 -32 73 -13 28 -16 152 -5 189 21 71 51 119 108 175 33 33 66 60 73 60 7 0 28 8 47 17 64 32 188 36 258 7z"
       id="path3682"
       style="fill:#ffffff;fill-opacity:0.93467337" />
    <path
       d="M5112 2161 c-53 -19 -69 -43 -53 -78 18 -40 12 -66 -22 -100 -31 -30 -35 -31 -75 -22 -66 14 -85 5 -105 -50 -25 -71 -22 -85 23 -115 39 -25 40 -28 40 -81 0 -31 -4 -55 -10 -55 -26 0 -70 -45 -70 -71 0 -33 36 -116 53 -122 6 -2 32 2 57 9 45 14 45 14 79 -21 l35 -34 -13 -50 c-7 -28 -10 -55 -6 -61 12 -20 115 -61 136 -55 10 4 29 24 41 44 21 37 24 38 76 39 54 0 54 0 70 -39 10 -26 23 -41 38 -45 29 -7 123 25 134 46 4 8 4 38 0 65 -8 54 -6 65 14 65 7 0 19 11 26 25 9 17 19 24 29 19 9 -3 36 -9 61 -11 l46 -5 28 63 29 62 -49 46 c-49 45 -50 47 -45 91 5 40 10 47 49 69 40 21 43 26 39 55 -17 103 -43 127 -122 109 -39 -9 -43 -8 -75 23 -26 26 -31 38 -26 58 3 14 9 37 12 51 4 17 1 32 -11 45 -20 22 -109 54 -130 46 -8 -3 -23 -23 -35 -46 -20 -39 -22 -40 -73 -40 -52 0 -52 0 -76 45 -27 51 -44 55 -119 26z m276 -197 c24 -8 56 -24 72 -35 45 -34 90 -112 102 -178 11 -56 10 -65 -16 -129 -46 -119 -120 -167 -253 -166 -72 0 -87 4 -124 28 -108 72 -148 171 -125 304 4 23 12 42 17 42 5 0 9 7 9 15 0 9 20 35 45 59 41 40 77 57 170 81 15 3 55 -4 103 -21z"
       id="path3684"
       style="fill:#ffffff;fill-opacity:0.93467337" />
    <path
       d="M4380 1857 c-42 -21 -45 -24 -42 -59 4 -52 -23 -78 -79 -75 -42 2 -43 1 -61 -45 l-17 -47 29 -21 c42 -30 42 -79 0 -104 -28 -16 -36 -42 -18 -56 4 -3 9 -16 11 -28 5 -31 13 -36 53 -34 31 2 91 -28 79 -39 -2 -3 -6 -19 -9 -36 -6 -31 8 -52 36 -57 7 -1 22 -7 34 -14 19 -10 25 -7 49 22 38 46 77 46 104 0 19 -31 22 -33 48 -24 67 25 73 31 68 72 -4 29 0 43 16 59 18 18 25 19 52 10 37 -13 47 -5 71 52 15 36 14 38 -12 62 -15 14 -30 25 -33 25 -4 0 -6 12 -5 26 0 17 13 36 34 52 36 27 38 44 13 87 -15 25 -24 30 -57 30 -23 1 -48 8 -60 19 -18 16 -20 24 -13 50 13 44 13 44 -31 66 -53 27 -66 25 -87 -10 -13 -23 -24 -30 -49 -30 -25 0 -34 6 -50 35 -10 19 -21 35 -24 35 -3 -1 -25 -11 -50 -23z m196 -147 c132 -64 128 -252 -8 -319 -15 -8 -33 -11 -41 -8 -8 3 -20 0 -26 -6 -6 -6 -11 -7 -11 -2 0 6 -11 11 -25 12 -46 4 -55 6 -55 15 0 5 -10 13 -22 19 -13 6 -30 27 -40 47 -19 43 -29 120 -17 128 5 3 7 9 4 14 -3 4 10 27 27 51 52 68 135 87 214 49z"
       id="path3686"
       style="fill:#ffffff;fill-opacity:0.93467337" />
    <path
       d="M1330 1100 c0 -28 -3 -30 -35 -30 l-35 0 0 -95 0 -95 35 0 c33 0 35 -2 35 -35 l0 -35 95 0 95 0 0 -95 0 -95 -65 0 -65 0 0 65 0 65 -65 0 -65 0 0 -65 0 -65 35 0 c33 0 35 -2 35 -35 l0 -35 130 0 130 0 0 35 c0 32 2 35 30 35 l30 0 0 100 0 100 -33 0 c-29 0 -33 3 -32 28 l0 27 -97 3 -98 3 0 94 0 95 65 0 65 0 0 -65 0 -65 65 0 65 0 0 65 0 65 -30 0 c-27 0 -30 3 -30 30 l0 30 -130 0 -130 0 0 -30z"
       id="path3688"
       style="fill:#ffffff;fill-opacity:0.93467337" />
    <path
       d="M1720 1000 l0 -130 30 0 c27 0 30 -3 30 -30 0 -27 3 -30 30 -30 l30 0 0 -130 0 -130 65 0 65 0 0 130 0 130 35 0 c32 0 35 2 35 30 0 27 3 30 30 30 l30 0 0 130 0 130 -65 0 -65 0 0 -125 0 -125 -65 0 -65 0 0 125 0 125 -60 0 -60 0 0 -130z"
       id="path3690"
       style="fill:#ffffff;fill-opacity:0.93467337" />
    <path
       d="M2230 1100 c0 -27 -3 -30 -30 -30 l-30 0 0 -95 0 -95 30 0 c28 0 30 -3 30 -35 l0 -35 95 0 95 0 0 -95 0 -95 -65 0 -65 0 0 65 0 65 -60 0 -60 0 0 -65 0 -65 30 0 c28 0 30 -3 30 -35 l0 -35 130 0 130 0 0 35 c0 32 2 35 30 35 l30 0 0 100 0 100 -30 0 c-27 0 -30 3 -30 30 l0 30 -100 0 -101 0 3 93 3 92 63 3 62 3 0 -66 0 -65 65 0 65 0 0 65 0 65 -30 0 c-27 0 -30 3 -30 30 l0 30 -130 0 -130 0 0 -30z"
       id="path3692"
       style="fill:#ffffff;fill-opacity:0.93467337" />
    <path
       d="M2620 1098 l0 -33 65 3 65 4 0 -261 0 -261 60 0 60 0 0 261 0 261 65 -4 65 -3 0 33 0 32 -190 0 -190 0 0 -32z"
       id="path3694"
       style="fill:#ffffff;fill-opacity:0.93467337" />
    <path
       d="M3070 840 l0 -290 190 0 190 0 0 35 0 35 -125 0 -125 0 0 95 0 95 95 0 95 0 0 35 0 35 -95 0 -95 0 0 96 0 95 125 -3 125 -3 0 33 0 32 -190 0 -190 0 0 -290z"
       id="path3696"
       style="fill:#ffffff;fill-opacity:0.93467337" />
    <path
       d="M3520 840 l0 -290 65 0 65 0 0 165 0 165 30 0 c28 0 30 -3 30 -35 0 -33 2 -35 35 -35 33 0 35 2 35 35 0 32 2 35 30 35 l30 0 0 -165 0 -165 65 0 65 0 0 290 0 290 -36 0 c-35 0 -36 -1 -30 -30 5 -29 4 -30 -29 -30 -33 0 -35 -2 -35 -35 0 -32 -2 -35 -30 -35 -27 0 -30 -3 -30 -30 0 -28 -3 -30 -36 -30 -35 0 -36 1 -32 30 4 28 3 30 -29 30 -31 0 -33 2 -33 35 0 32 -2 35 -30 35 -27 0 -30 3 -30 30 0 28 -3 30 -35 30 l-35 0 0 -290z"
       id="path3698"
       style="fill:#ffffff;fill-opacity:0.93467337" />
    <path
       d="M4180 845 l0 -285 55 0 55 0 0 120 0 120 120 0 120 0 0 50 0 50 -120 0 -121 0 3 68 3 67 135 1 135 0 3 47 3 47 -195 0 -196 0 0 -285z"
       id="path3700"
       style="fill:#ffffff;fill-opacity:0.93467337" />
    <path
       d="M4750 845 l0 -285 200 0 200 0 0 50 0 50 -146 0 -145 0 2 233 2 232 -57 3 -56 3 0 -286z"
       id="path3702"
       style="fill:#ffffff;fill-opacity:0.93467337" />
    <path
       d="M5471 1108 c-5 -13 -53 -135 -106 -273 -54 -137 -100 -256 -102 -263 -4 -10 9 -12 57 -10 l62 3 23 60 22 60 115 3 116 3 23 -66 24 -65 63 0 62 0 -13 33 c-7 17 -58 146 -113 284 l-99 253 -63 0 c-56 0 -63 -2 -71 -22z m111 -215 l36 -98 -70 -3 c-39 -2 -73 -1 -75 2 -6 5 60 196 67 196 3 0 22 -44 42 -97z"
       id="path3704"
       style="fill:#ffffff;fill-opacity:0.93467337" />
    <path
       d="M5970 845 l0 -285 60 0 60 0 0 120 0 120 39 0 c53 0 83 -27 161 -144 l63 -96 68 0 68 0 -61 95 c-33 52 -76 108 -94 125 -19 16 -34 31 -34 33 0 3 12 7 28 10 64 13 112 79 112 154 0 57 -29 104 -80 131 -41 20 -58 22 -217 22 l-173 0 0 -285z m331 166 c24 -30 24 -63 0 -92 -17 -22 -29 -24 -115 -27 l-96 -4 0 77 0 77 96 -4 c86 -4 99 -7 115 -27z"
       id="path3706"
       style="fill:#ffffff;fill-opacity:0.93467337" />
    <path
       d="M6630 845 l0 -285 219 0 218 0 -1 48 -1 47 -163 3 -162 2 0 75 0 75 145 0 145 0 0 50 0 50 -145 0 -146 0 3 63 3 62 155 1 155 1 1 46 1 47 -213 0 -214 0 0 -285z"
       id="path3708"
       style="fill:#ffffff;fill-opacity:0.93467337" />
  </g>
</svg>
